<?xml version="1.0" encoding="UTF-8"?>
<svg width="708px" height="155px" viewBox="0 0 708 155" version="1.1" xmlns="http://www.w3.org/2000/svg" xmlns:xlink="http://www.w3.org/1999/xlink">
    <title>BB322CB0-A3C7-4E88-A772-713A2DC81028</title>
    <g id="Screens" stroke="none" stroke-width="1" fill="none" fill-rule="evenodd">
        <g id="Slider" transform="translate(-366.000000, -589.000000)">
            <rect id="Background" fill="#39B8FF" x="0" y="0" width="1440" height="1024"></rect>
            <g id="Component/Tooltip" transform="translate(366.000000, 589.577375)">
                <rect id="Box" fill="#FFFFFF" x="0" y="27" width="708" height="127" rx="63.5"></rect>
                <g id="Button/Submit" transform="translate(626.000000, 60.000000)">
                    <circle id="Button-oval" fill="#4ED520" cx="30" cy="30" r="30"></circle>
                    <polyline id="Icon-Check" stroke="#FFFFFF" stroke-width="6" stroke-linecap="round" points="19.3724807 27.6378885 28.4875075 40 45.9962435 15.275777"></polyline>
                </g>
                <g id="Component/Slider" transform="translate(103.000000, 60.000000)">
                    <rect id="Slider-bar" fill="#39B8FF" x="0" y="22" width="502" height="16" rx="8"></rect>
                    <g id="Element/Slider-handle" transform="translate(221.000000, 0.000000)">
                        <rect id="Box" fill="#218DC9" x="0" y="0" width="60" height="60" rx="15"></rect>
                        <rect id="Line-3" fill="#39B8FF" x="39" y="16" width="8" height="28" rx="4"></rect>
                        <rect id="Line-2" fill="#39B8FF" x="26" y="9" width="8" height="42" rx="4"></rect>
                        <rect id="Line-1" fill="#39B8FF" x="13" y="16" width="8" height="28" rx="4"></rect>
                    </g>
                </g>
                <g id="Element/Tooltip-arrow" transform="translate(326.000000, 0.000000)" fill="#FFFFFF">
                    <path d="M0,28 L28,0 L56,28 L0,28 Z" id="Combined-Shape"></path>
                </g>
            </g>
        </g>
    </g>
</svg>